<svg xmlns="http://www.w3.org/2000/svg" version="1.1" xmlns:xlink="http://www.w3.org/1999/xlink" width="68" height="68"><svg width="68" height="68" viewBox="0 0 68 68" fill="none" xmlns="http://www.w3.org/2000/svg">
<rect width="68" height="68" fill="#D86038"></rect>
<path d="M42.4342 56C41.9585 56 41.7207 55.782 41.7207 55.3459C41.7207 54.9496 41.9387 54.7117 42.3748 54.6324L43.2072 54.5135C44.0396 54.3946 44.654 54.1568 45.0504 53.8C45.4468 53.4432 45.645 52.8487 45.645 52.0162V17.9459C45.645 17.2324 45.5261 16.7369 45.2883 16.4595C45.0901 16.182 44.7135 16.0234 44.1585 15.9838L42.791 15.8054C42.3549 15.7261 42.1369 15.4883 42.1369 15.0919C42.1369 14.6955 42.3549 14.4577 42.791 14.3784C43.9009 14.1405 44.8522 13.8631 45.645 13.5459C46.4378 13.2288 47.0919 12.9117 47.6072 12.5946C48.2414 12.1982 48.7171 12 49.0342 12C49.4703 12 49.6883 12.3171 49.6883 12.9513V52.0162C49.6883 52.8487 49.8072 53.4432 50.045 53.8C50.3225 54.1171 50.8775 54.3351 51.7099 54.4541L53.0775 54.6324C53.5135 54.7117 53.7315 54.9496 53.7315 55.3459C53.7315 55.782 53.4937 56 53.018 56H42.4342Z" fill="white"></path>
<path d="M13.8919 55.9999C13.2973 55.9999 13 55.8017 13 55.4053C13 55.0089 13.2775 54.7513 13.8324 54.6323L14.7243 54.454C15.5171 54.2954 16.1117 53.9188 16.5081 53.3242C16.9045 52.69 17.2414 51.8179 17.5189 50.708L26.7351 13.5458C26.8144 13.1494 26.9333 12.8918 27.0919 12.7729C27.2901 12.6539 27.4685 12.5945 27.627 12.5945C27.8252 12.5945 28.0036 12.6539 28.1622 12.7729C28.3604 12.8918 28.4991 13.1494 28.5784 13.5458L37.973 51.2432C38.2505 52.3531 38.5676 53.126 38.9243 53.5621C39.2811 53.9981 39.836 54.2954 40.5892 54.454L41.4811 54.6323C42.036 54.7513 42.3135 55.0089 42.3135 55.4053C42.3135 55.8017 42.0162 55.9999 41.4216 55.9999H31.2541C30.6991 55.9999 30.4216 55.7819 30.4216 55.3459C30.4216 54.9098 30.7586 54.672 31.4324 54.6323L32.5622 54.5134C33.236 54.4341 33.6523 54.2161 33.8108 53.8594C34.009 53.5026 34.009 52.8882 33.8108 52.0161L31.5514 42.7999C31.3135 41.7693 30.6595 41.254 29.5892 41.254H23.3459C22.3153 41.254 21.6613 41.7693 21.3838 42.7999L19.3622 50.7675C18.7676 53.0269 19.3622 54.2756 21.1459 54.5134L22.0378 54.6323C22.7117 54.7513 23.0486 54.9891 23.0486 55.3459C23.0486 55.7819 22.7712 55.9999 22.2162 55.9999H13.8919ZM23.1676 39.4702H29.7081C30.3423 39.4702 30.6 39.1332 30.4811 38.4594L26.6757 22.5242H26.3784L22.3946 38.4594C22.2757 39.1332 22.5333 39.4702 23.1676 39.4702Z" fill="white"></path>
</svg><style>@media (prefers-color-scheme: light) { :root { filter: none; } }
@media (prefers-color-scheme: dark) { :root { filter: none; } }
</style></svg>